<?xml version="1.0" encoding="UTF-8"?>
<svg xmlns="http://www.w3.org/2000/svg" xmlns:xlink="http://www.w3.org/1999/xlink" width="11pt" height="15pt" viewBox="0 0 11 15" version="1.1">
<g id="surface1">
<path style=" stroke:none;fill-rule:nonzero;fill:rgb(0%,0%,0%);fill-opacity:1;" d="M 9.96875 1.851562 L 1.03125 1.851562 C 0.460938 1.851562 0 2.472656 0 3.238281 L 0 11.566406 C 0 12.332031 0.460938 12.953125 1.03125 12.953125 L 9.96875 12.953125 C 10.539062 12.953125 11 12.332031 11 11.566406 L 11 3.238281 C 11 2.472656 10.539062 1.851562 9.96875 1.851562 Z M 9.96875 2.777344 C 10.015625 2.777344 10.058594 2.785156 10.101562 2.808594 L 5.5 8.175781 L 0.898438 2.808594 C 0.941406 2.785156 0.984375 2.777344 1.03125 2.777344 Z M 9.96875 12.027344 L 1.03125 12.027344 C 0.839844 12.027344 0.6875 11.820312 0.6875 11.566406 L 0.6875 3.789062 L 5.273438 9.140625 C 5.339844 9.214844 5.421875 9.25 5.5 9.25 C 5.578125 9.25 5.660156 9.214844 5.726562 9.140625 L 10.3125 3.789062 L 10.3125 11.566406 C 10.3125 11.820312 10.160156 12.027344 9.96875 12.027344 Z M 9.96875 12.027344 "/>
</g>
</svg>
