<?xml version="1.0" encoding="UTF-8"?>
<svg xmlns="http://www.w3.org/2000/svg" xmlns:xlink="http://www.w3.org/1999/xlink" width="12pt" height="15pt" viewBox="0 0 12 15" version="1.1">
<g id="surface1">
<path style=" stroke:none;fill-rule:nonzero;fill:rgb(92.54902%,93.72549%,94.509804%);fill-opacity:1;" d="M 10.625 1.875 L 1.375 1.875 C 0.617188 1.875 0 2.644531 0 3.59375 L 0 11.40625 C 0 12.355469 0.617188 13.125 1.375 13.125 L 10.625 13.125 C 11.382812 13.125 12 12.355469 12 11.40625 L 12 3.59375 C 12 2.644531 11.382812 1.875 10.625 1.875 Z M 10.625 1.875 "/>
<path style=" stroke:none;fill-rule:nonzero;fill:rgb(25.882353%,64.705882%,96.078431%);fill-opacity:1;" d="M 5 5.9375 C 5 6.800781 4.441406 7.5 3.75 7.5 C 3.058594 7.5 2.5 6.800781 2.5 5.9375 C 2.5 5.074219 3.058594 4.375 3.75 4.375 C 4.441406 4.375 5 5.074219 5 5.9375 Z M 5 5.9375 "/>
<path style=" stroke:none;fill-rule:nonzero;fill:rgb(25.882353%,64.705882%,96.078431%);fill-opacity:1;" d="M 6 10.15625 C 6 10.414062 5.832031 10.625 5.625 10.625 L 1.875 10.625 C 1.667969 10.625 1.5 10.414062 1.5 10.15625 L 1.5 9.84375 C 1.5 8.894531 2.117188 8.125 2.875 8.125 L 4.625 8.125 C 5.382812 8.125 6 8.894531 6 9.84375 Z M 6 10.15625 "/>
<path style=" stroke:none;fill-rule:nonzero;fill:rgb(37.647059%,49.019608%,54.509804%);fill-opacity:1;" d="M 10.125 10.625 L 7.375 10.625 C 7.167969 10.625 7 10.414062 7 10.15625 C 7 9.898438 7.167969 9.6875 7.375 9.6875 L 10.125 9.6875 C 10.332031 9.6875 10.5 9.898438 10.5 10.15625 C 10.5 10.414062 10.332031 10.625 10.125 10.625 Z M 10.125 10.625 "/>
<path style=" stroke:none;fill-rule:nonzero;fill:rgb(37.647059%,49.019608%,54.509804%);fill-opacity:1;" d="M 10.125 8.125 L 7.375 8.125 C 7.167969 8.125 7 7.914062 7 7.65625 C 7 7.398438 7.167969 7.1875 7.375 7.1875 L 10.125 7.1875 C 10.332031 7.1875 10.5 7.398438 10.5 7.65625 C 10.5 7.914062 10.332031 8.125 10.125 8.125 Z M 10.125 8.125 "/>
<path style=" stroke:none;fill-rule:nonzero;fill:rgb(37.647059%,49.019608%,54.509804%);fill-opacity:1;" d="M 10.125 5.625 L 7.375 5.625 C 7.167969 5.625 7 5.414062 7 5.15625 C 7 4.898438 7.167969 4.6875 7.375 4.6875 L 10.125 4.6875 C 10.332031 4.6875 10.5 4.898438 10.5 5.15625 C 10.5 5.414062 10.332031 5.625 10.125 5.625 Z M 10.125 5.625 "/>
</g>
</svg>
