<?xml version="1.0" encoding="UTF-8"?>
<svg xmlns="http://www.w3.org/2000/svg" xmlns:xlink="http://www.w3.org/1999/xlink" width="12pt" height="15pt" viewBox="0 0 12 15" version="1.1">
<g id="surface1">
<path style=" stroke:none;fill-rule:nonzero;fill:rgb(0%,0%,0%);fill-opacity:1;" d="M 5.410156 10.378906 L 5.25 12.152344 C 5.242188 12.242188 5.265625 12.328125 5.3125 12.394531 C 5.359375 12.460938 5.429688 12.5 5.5 12.5 L 6.5 12.5 C 6.570312 12.5 6.640625 12.460938 6.6875 12.394531 C 6.734375 12.328125 6.757812 12.242188 6.75 12.152344 L 6.589844 10.378906 C 6.847656 10.148438 7 9.777344 7 9.375 C 7 8.6875 6.550781 8.125 6 8.125 C 5.449219 8.125 5 8.6875 5 9.375 C 5 9.777344 5.152344 10.148438 5.410156 10.378906 Z M 6 8.75 C 6.277344 8.75 6.5 9.03125 6.5 9.375 C 6.5 9.613281 6.390625 9.828125 6.214844 9.933594 C 6.121094 9.992188 6.0625 10.121094 6.078125 10.25 L 6.222656 11.875 L 5.78125 11.875 L 5.925781 10.25 C 5.9375 10.121094 5.878906 9.992188 5.785156 9.933594 C 5.609375 9.828125 5.5 9.613281 5.5 9.375 C 5.5 9.03125 5.722656 8.75 6 8.75 Z M 6 8.75 "/>
<path style=" stroke:none;fill-rule:nonzero;fill:rgb(0%,0%,0%);fill-opacity:1;" d="M 10.25 5.625 L 9.5 5.625 L 9.5 4.375 C 9.5 1.960938 7.929688 0 6 0 C 4.070312 0 2.5 1.960938 2.5 4.375 L 2.5 5.625 L 1.75 5.625 C 1.613281 5.625 1.5 5.765625 1.5 5.9375 L 1.5 13.75 C 1.5 14.4375 1.949219 15 2.5 15 L 9.5 15 C 10.050781 15 10.5 14.4375 10.5 13.75 L 10.5 5.9375 C 10.5 5.765625 10.386719 5.625 10.25 5.625 Z M 3 4.375 C 3 2.308594 4.347656 0.625 6 0.625 C 7.652344 0.625 9 2.308594 9 4.375 L 9 5.625 L 8.5 5.625 L 8.5 4.375 C 8.5 2.652344 7.378906 1.25 6 1.25 C 4.621094 1.25 3.5 2.652344 3.5 4.375 L 3.5 5.625 L 3 5.625 Z M 8 4.375 L 8 5.625 L 4 5.625 L 4 4.375 C 4 2.996094 4.898438 1.875 6 1.875 C 7.101562 1.875 8 2.996094 8 4.375 Z M 10 13.75 C 10 14.09375 9.777344 14.375 9.5 14.375 L 2.5 14.375 C 2.222656 14.375 2 14.09375 2 13.75 L 2 6.25 L 10 6.25 Z M 10 13.75 "/>
</g>
</svg>
